# xmcd
#
# Track frame offsets: 
#        150
#        20992
#        41467
#        59167
#        82072
#        104940
#        138762
#        155262
#        179110
#        205837
#        232125
#        258102
#        276660
#        302892
#        323802
#        337907
#
# Disc length: 4775 seconds
#
# Revision: 11
# Processed by: cddbd v1.5.2PL0 Copyright (c) Steve Scherf et al.
# Submitted via: ExactAudioCopyFreeDBPlugin 1.0
#
DISCID=fa12a510
DTITLE=Steely Dan - Remastered: The Best of Steely Dan Then and Now
DYEAR=1993
DGENRE=Rock
TTITLE0=Reelin' in the Years
TTITLE1=Rikki Don't Lose That Number
TTITLE2=Peg
TTITLE3=FM
TTITLE4=Hey Nineteen
TTITLE5=Deacon Blues
TTITLE6=Black Friday
TTITLE7=Bodhisattva
TTITLE8=Do It Again
TTITLE9=Haitian Divorce
TTITLE10=My Old School
TTITLE11=Midnight Cruiser
TTITLE12=Babylon Sisters
TTITLE13=Kid Charlemagne
TTITLE14=Dirty Work
TTITLE15=Josie
EXTD=YEAR: 1993
EXTT0=
EXTT1=
EXTT2=
EXTT3=
EXTT4=
EXTT5=
EXTT6=
EXTT7=
EXTT8=
EXTT9=
EXTT10=
EXTT11=
EXTT12=
EXTT13=
EXTT14=
EXTT15=
PLAYORDER=
